HIERARCHY
ROOT Hips
{
	OFFSET 0.000000 0.000000 0.000000
	CHANNELS 6 Xposition Yposition Zposition Xrotation Zrotation Yrotation
	JOINT Spine
	{
		OFFSET 0.000000 0.000000 -0.744707
		CHANNELS 6 Xposition Yposition Zposition Xrotation Zrotation Yrotation
		JOINT Spine1
		{
			OFFSET 0.000000 0.000000 -2.032240
			CHANNELS 6 Xposition Yposition Zposition Xrotation Zrotation Yrotation
			JOINT Neck
			{
				OFFSET 0.000000 0.000000 -2.213880
				CHANNELS 6 Xposition Yposition Zposition Xrotation Zrotation Yrotation
				JOINT Head
				{
					OFFSET 0.000000 0.181636 -1.407680
					CHANNELS 6 Xposition Yposition Zposition Xrotation Zrotation Yrotation
					End Site
					{
						OFFSET 0.000000 0.000000 -1.816356
					}
				}
			}
			JOINT LeftShoulder
			{
				OFFSET 0.365767 -0.048012 -1.787590
				CHANNELS 6 Xposition Yposition Zposition Xrotation Zrotation Yrotation
				JOINT LeftArm
				{
					OFFSET 1.305160 0.000000 0.000000
					CHANNELS 6 Xposition Yposition Zposition Xrotation Zrotation Yrotation
					JOINT LeftForeArm
					{
						OFFSET 2.559210 0.000000 0.000000
						CHANNELS 6 Xposition Yposition Zposition Xrotation Zrotation Yrotation
						JOINT LeftHand
						{
							OFFSET 2.378450 0.000000 0.000000
							CHANNELS 6 Xposition Yposition Zposition Xrotation Zrotation Yrotation
							End Site
							{
								OFFSET 1.362267 0.000000 0.000000
							}
						}
					}
				}
			}
			JOINT RightShoulder
			{
				OFFSET -0.360721 -0.048012 -1.787590
				CHANNELS 6 Xposition Yposition Zposition Xrotation Zrotation Yrotation
				JOINT RightArm
				{
					OFFSET -1.305160 0.000000 0.000000
					CHANNELS 6 Xposition Yposition Zposition Xrotation Zrotation Yrotation
					JOINT RightForeArm
					{
						OFFSET -2.559210 0.000000 0.000000
						CHANNELS 6 Xposition Yposition Zposition Xrotation Zrotation Yrotation
						JOINT RightHand
						{
							OFFSET -2.378450 0.000000 0.000000
							CHANNELS 6 Xposition Yposition Zposition Xrotation Zrotation Yrotation
							End Site
							{
								OFFSET -1.362267 0.000000 0.000000
							}
						}
					}
				}
			}
		}
	}
	JOINT LeftUpLeg
	{
		OFFSET 0.908180 0.000000 0.000000
		CHANNELS 6 Xposition Yposition Zposition Xrotation Zrotation Yrotation
		JOINT LeftLeg
		{
			OFFSET 0.000000 -0.000003 3.819490
			CHANNELS 6 Xposition Yposition Zposition Xrotation Zrotation Yrotation
			JOINT LeftFoot
			{
				OFFSET 0.000000 -0.000003 4.004300
				CHANNELS 6 Xposition Yposition Zposition Xrotation Zrotation Yrotation
				JOINT LeftToeBase
				{
					OFFSET 0.000000 1.362270 0.590317
					CHANNELS 6 Xposition Yposition Zposition Xrotation Zrotation Yrotation
					End Site
					{
						OFFSET 0.000000 0.363271 0.000000
					}
				}
			}
		}
	}
	JOINT RightUpLeg
	{
		OFFSET -0.908180 0.000000 0.000000
		CHANNELS 6 Xposition Yposition Zposition Xrotation Zrotation Yrotation
		JOINT RightLeg
		{
			OFFSET 0.000000 -0.000003 3.819490
			CHANNELS 6 Xposition Yposition Zposition Xrotation Zrotation Yrotation
			JOINT RightFoot
			{
				OFFSET 0.000000 -0.000003 4.004300
				CHANNELS 6 Xposition Yposition Zposition Xrotation Zrotation Yrotation
				JOINT RightToeBase
				{
					OFFSET 0.000000 1.362270 0.590317
					CHANNELS 6 Xposition Yposition Zposition Xrotation Zrotation Yrotation
					End Site
					{
						OFFSET 0.000000 0.363271 0.000000
					}
				}
			}
		}
	}
}
MOTION
Frames: 8
Frame Time: 0.016667
-1.172897 1.838407 -7.610187 9.134110 0.186415 1.334763 -0.000000 -0.000000 -0.744706 -17.844909 2.124760 -4.527483 0.000000 0.000003 -2.032241 6.048469 0.303822 12.253148 0.000000 0.000001 -2.213884 12.457924 -3.367800 0.772482 0.000000 0.181636 -1.407679 1.756025 -4.346613 -7.523289 0.365767 -0.048012 -1.787591 -8.581690 0.328112 21.121054 1.305162 -0.000000 -0.000003 -10.144982 12.278164 -3.786522 2.559211 -0.000000 0.000001 -5.863773 -0.663419 -2.160489 2.378450 0.000001 0.000001 -5.147549 -19.864495 -4.157721 -0.360721 -0.048011 -1.787591 -0.547121 5.559662 -16.895221 -1.305160 -0.000000 -0.000002 37.595024 -26.526136 -0.085259 -2.559210 0.000001 0.000001 61.848319 -60.249768 -93.224897 -2.378452 -0.000000 -0.000000 -5.981516 10.566254 -48.354905 0.908180 -0.000000 0.000001 -21.657125 -9.856909 17.367148 -0.000000 -0.000002 3.819490 22.775553 -3.696845 -1.949952 -0.000000 -0.000003 4.004301 0.886691 -18.045054 -9.046006 -0.000000 1.362270 0.590317 0.000003 0.000008 0.000003 -0.908180 -0.000000 0.000001 -22.640469 -3.317251 -21.082830 0.000001 -0.000003 3.819489 27.250411 -19.229184 10.966362 0.000001 -0.000002 4.004301 -10.603928 49.115289 6.875398 -0.000000 1.362269 0.590315 0.000004 0.000006 -0.000004 
-1.173770 1.838430 -7.610147 9.133573 0.194796 1.327315 0.000000 -0.000000 -0.744704 -17.852151 2.120181 -4.520710 -0.000000 0.000002 -2.032236 6.053115 0.301474 12.256237 0.000000 0.000000 -2.213880 12.473233 -3.421575 0.787655 -0.000000 0.181637 -1.407682 1.707177 -4.406401 -7.531055 0.365767 -0.048011 -1.787588 -8.586634 0.334948 21.110354 1.305162 -0.000000 -0.000001 -10.151098 12.272574 -3.782319 2.559210 -0.000002 0.000000 -5.868103 -0.669891 -2.174240 2.378452 -0.000000 0.000002 -5.161049 -19.873207 -4.104636 -0.360721 -0.048011 -1.787587 -0.547208 5.551895 -16.900197 -1.305161 -0.000000 0.000003 37.665263 -26.502138 -0.105196 -2.559211 0.000001 0.000000 61.810036 -60.223806 -93.263897 -2.378449 0.000001 0.000002 -6.004278 10.513656 -48.356066 0.908180 -0.000000 0.000001 -21.644005 -9.834844 17.376145 -0.000000 -0.000002 3.819489 22.767474 -3.719710 -1.952688 -0.000001 -0.000001 4.004302 0.898856 -18.052265 -9.094861 -0.000000 1.362270 0.590317 -0.000003 0.000001 0.000000 -0.908180 -0.000000 0.000002 -22.641744 -3.307924 -21.066697 0.000001 -0.000003 3.819489 27.248025 -19.212738 10.960839 0.000002 -0.000001 4.004301 -10.610328 49.091206 6.863197 -0.000000 1.362270 0.590316 0.000004 0.000002 0.000001 
-1.174628 1.838608 -7.609982 9.126449 0.194816 1.327100 -0.000000 -0.000000 -0.744707 -17.847810 2.120103 -4.522484 0.000000 0.000000 -2.032241 6.049700 0.301712 12.259239 -0.000000 0.000000 -2.213879 12.469333 -3.482563 0.796194 -0.000000 0.181637 -1.407684 1.688203 -4.469103 -7.516721 0.365767 -0.048012 -1.787591 -8.592766 0.338532 21.095476 1.305161 -0.000000 -0.000003 -10.121564 12.270245 -3.769809 2.559211 -0.000001 -0.000004 -5.875640 -0.670595 -2.180766 2.378449 0.000000 0.000002 -5.169024 -19.878535 -4.101341 -0.360722 -0.048012 -1.787589 -0.536460 5.561315 -16.904349 -1.305161 -0.000000 -0.000002 37.666468 -26.494287 -0.119267 -2.559210 0.000001 0.000002 61.823710 -60.230357 -93.291477 -2.378450 0.000001 0.000000 -6.035507 10.540756 -48.367933 0.908180 -0.000000 -0.000000 -21.627804 -9.814351 17.376252 -0.000000 -0.000002 3.819490 22.759135 -3.704519 -1.951064 -0.000001 -0.000002 4.004299 0.897558 -18.082499 -9.057591 -0.000000 1.362270 0.590317 -0.000000 0.000006 -0.000001 -0.908180 -0.000000 -0.000001 -22.643540 -3.284308 -21.063038 -0.000001 -0.000003 3.819489 27.252914 -19.253207 10.952172 0.000001 -0.000001 4.004298 -10.641961 49.096667 6.814163 -0.000000 1.362270 0.590317 0.000002 0.000007 0.000001 
-1.175332 1.838418 -7.609899 9.126122 0.205619 1.318129 0.000000 0.000000 -0.744708 -17.851480 2.115500 -4.509061 0.000000 0.000000 -2.032238 6.054014 0.299191 12.258450 -0.000000 0.000000 -2.213878 12.469307 -3.535528 0.803518 0.000000 0.181636 -1.407676 1.661025 -4.524597 -7.507507 0.365767 -0.048012 -1.787590 -8.600297 0.333682 21.099212 1.305160 0.000000 0.000001 -10.095760 12.271070 -3.783410 2.559212 -0.000001 -0.000002 -5.885425 -0.666136 -2.175632 2.378449 0.000000 0.000002 -5.177710 -19.890595 -4.104390 -0.360721 -0.048012 -1.787588 -0.541715 5.555427 -16.919319 -1.305161 0.000001 -0.000000 37.645134 -26.485703 -0.101604 -2.559209 -0.000001 -0.000001 61.859036 -60.239454 -93.309591 -2.378450 0.000000 0.000002 -6.035450 10.560706 -48.373507 0.908180 -0.000000 0.000000 -21.610215 -9.776436 17.381167 -0.000000 -0.000002 3.819490 22.747136 -3.745917 -1.952449 -0.000000 -0.000002 4.004301 0.898432 -18.087213 -9.063082 0.000000 1.362270 0.590317 -0.000000 -0.000005 0.000002 -0.908180 -0.000000 -0.000001 -22.658657 -3.287005 -21.046376 0.000001 -0.000002 3.819490 27.268646 -19.282944 10.954432 0.000001 -0.000001 4.004301 -10.642026 49.119562 6.822360 0.000000 1.362268 0.590317 -0.000001 0.000010 0.000000 
-1.176150 1.838444 -7.609684 9.118148 0.204634 1.321574 0.000000 0.000000 -0.744707 -17.850214 2.112212 -4.515082 -0.000000 0.000001 -2.032236 6.057268 0.298058 12.258829 0.000000 0.000000 -2.213879 12.481636 -3.579154 0.817788 -0.000000 0.181636 -1.407679 1.618725 -4.572527 -7.506824 0.365767 -0.048012 -1.787588 -8.594129 0.326633 21.093745 1.305162 0.000000 -0.000003 -10.114656 12.283438 -3.784113 2.559210 0.000000 -0.000001 -5.875889 -0.677741 -2.178513 2.378448 0.000001 0.000002 -5.169817 -19.880623 -4.098585 -0.360721 -0.048012 -1.787589 -0.544901 5.548342 -16.929471 -1.305160 0.000001 -0.000000 37.609166 -26.468271 -0.071477 -2.559211 0.000001 0.000004 61.907817 -60.237119 -93.333551 -2.378449 0.000000 0.000002 -6.012562 10.586838 -48.329582 0.908180 0.000000 0.000001 -21.620370 -9.836502 17.364045 -0.000000 -0.000002 3.819490 22.740345 -3.762303 -1.886693 -0.000001 -0.000002 4.004300 0.910108 -18.022081 -9.085797 -0.000000 1.362270 0.590316 0.000003 0.000000 -0.000000 -0.908180 0.000000 -0.000000 -22.666734 -3.272851 -21.049523 0.000000 -0.000001 3.819489 27.291329 -19.284049 10.955857 0.000000 -0.000001 4.004302 -10.659909 49.105088 6.815999 -0.000001 1.362269 0.590315 -0.000001 0.000000 0.000000 
-1.176778 1.838491 -7.609550 9.110922 0.210640 1.319394 0.000000 0.000000 -0.744707 -17.850802 2.107337 -4.511279 0.000000 0.000001 -2.032238 6.064398 0.295645 12.255871 -0.000000 0.000001 -2.213882 12.470981 -3.615089 0.840399 0.000001 0.181636 -1.407682 1.614653 -4.611433 -7.516247 0.365767 -0.048012 -1.787593 -8.607962 0.330559 21.104921 1.305161 0.000000 0.000000 -10.128025 12.280620 -3.804578 2.559211 0.000000 0.000000 -5.850028 -0.682321 -2.181793 2.378453 -0.000000 0.000003 -5.142074 -19.874396 -4.111163 -0.360721 -0.048012 -1.787591 -0.547418 5.539272 -16.935039 -1.305160 0.000001 -0.000003 37.623370 -26.452626 -0.065187 -2.559210 -0.000001 -0.000002 61.903015 -60.231613 -93.350668 -2.378449 -0.000000 -0.000001 -6.040784 10.608086 -48.365936 0.908180 0.000000 -0.000001 -21.613381 -9.849692 17.369828 0.000000 -0.000002 3.819490 22.737398 -3.702133 -1.878000 -0.000001 -0.000002 4.004301 0.914292 -18.077626 -9.136719 -0.000000 1.362270 0.590316 0.000007 0.000004 0.000001 -0.908180 0.000000 -0.000001 -22.660606 -3.265952 -21.049890 -0.000001 -0.000003 3.819489 27.279200 -19.324654 10.966767 0.000001 -0.000001 4.004301 -10.688519 49.117499 6.766038 0.000001 1.362270 0.590317 0.000001 0.000004 0.000001 
-1.177518 1.838294 -7.609241 9.106112 0.213901 1.324983 0.000000 0.000000 -0.744707 -17.852721 2.099764 -4.523233 0.000000 0.000000 -2.032238 6.072656 0.292361 12.266182 0.000000 0.000000 -2.213878 12.467084 -3.649544 0.850732 0.000000 0.181638 -1.407682 1.594353 -4.648753 -7.518116 0.365767 -0.048012 -1.787590 -8.608344 0.333201 21.095717 1.305161 0.000000 0.000001 -10.125419 12.278758 -3.802702 2.559211 -0.000001 -0.000001 -5.843122 -0.685801 -2.176911 2.378451 -0.000000 -0.000001 -5.134897 -19.860629 -4.115896 -0.360721 -0.048012 -1.787589 -0.560119 5.529043 -16.942576 -1.305160 0.000001 0.000002 37.619258 -26.436802 -0.046642 -2.559211 -0.000000 0.000002 61.905959 -60.232945 -93.358441 -2.378451 0.000001 -0.000004 -6.047098 10.603134 -48.392444 0.908180 0.000000 0.000000 -21.620021 -9.877642 17.371683 -0.000000 -0.000002 3.819488 22.738354 -3.684571 -1.863886 -0.000000 -0.000003 4.004302 0.911596 -18.064662 -9.093704 -0.000000 1.362270 0.590316 0.000002 0.000009 0.000001 -0.908180 -0.000000 0.000001 -22.686410 -3.263583 -21.046839 0.000000 -0.000004 3.819489 27.329317 -19.337906 10.959062 0.000001 -0.000001 4.004300 -10.701864 49.121556 6.780889 -0.000000 1.362269 0.590316 0.000002 0.000005 -0.000000 
-1.178143 1.838342 -7.609079 9.096207 0.215364 1.325522 -0.000000 0.000000 -0.744706 -17.853124 2.096772 -4.514263 0.000000 0.000001 -2.032237 6.083669 0.290654 12.249573 0.000000 0.000001 -2.213882 12.456974 -3.676462 0.889854 0.000000 0.181636 -1.407681 1.588264 -4.682509 -7.559095 0.365767 -0.048012 -1.787593 -8.606992 0.334537 21.099335 1.305161 0.000000 -0.000003 -10.104516 12.273296 -3.809034 2.559210 -0.000002 -0.000001 -5.849319 -0.674165 -2.157170 2.378448 0.000001 0.000003 -5.142086 -19.864282 -4.107636 -0.360721 -0.048012 -1.787591 -0.555824 5.529291 -16.942192 -1.305160 0.000001 -0.000001 37.594362 -26.440386 -0.030956 -2.559211 -0.000000 -0.000000 61.880831 -60.211355 -93.330164 -2.378449 -0.000000 -0.000000 -6.040354 10.632593 -48.413562 0.908180 0.000000 -0.000000 -21.610666 -9.885851 17.376298 -0.000000 -0.000003 3.819490 22.734858 -3.679708 -1.860653 -0.000001 -0.000001 4.004303 0.912337 -18.058826 -9.097047 -0.000000 1.362269 0.590317 -0.000000 0.000009 -0.000002 -0.908180 0.000000 0.000001 -22.683881 -3.244843 -21.044086 -0.000000 -0.000002 3.819489 27.336370 -19.332077 10.948520 0.000001 -0.000001 4.004301 -10.712822 49.092091 6.771518 -0.000000 1.362270 0.590317 0.000002 0.000008 -0.000001 
